<mxfile host="Electron" agent="Mozilla/5.0 (Windows NT 10.0; Win64; x64) AppleWebKit/537.36 (KHTML, like Gecko) draw.io/27.0.5 Chrome/134.0.6998.205 Electron/35.3.0 Safari/537.36" version="27.0.5">
  <diagram name="第 1 页" id="1ISZXP66ttom4p50y0LG">
    <mxGraphModel dx="856" dy="521" grid="1" gridSize="10" guides="1" tooltips="1" connect="1" arrows="1" fold="1" page="1" pageScale="1" pageWidth="827" pageHeight="1169" math="0" shadow="0">
      <root>
        <mxCell id="0" />
        <mxCell id="1" parent="0" />
        <mxCell id="TqxyXy0SHhE-zwgsd13N-1" value="" style="shape=umlLifeline;perimeter=lifelinePerimeter;whiteSpace=wrap;html=1;container=1;dropTarget=0;collapsible=0;recursiveResize=0;outlineConnect=0;portConstraint=eastwest;newEdgeStyle={&quot;curved&quot;:0,&quot;rounded&quot;:0};participant=umlActor;" parent="1" vertex="1">
          <mxGeometry x="170" y="80" width="20" height="440" as="geometry" />
        </mxCell>
        <mxCell id="TqxyXy0SHhE-zwgsd13N-10" value="" style="html=1;points=[[0,0,0,0,5],[0,1,0,0,-5],[1,0,0,0,5],[1,1,0,0,-5]];perimeter=orthogonalPerimeter;outlineConnect=0;targetShapes=umlLifeline;portConstraint=eastwest;newEdgeStyle={&quot;curved&quot;:0,&quot;rounded&quot;:0};" parent="TqxyXy0SHhE-zwgsd13N-1" vertex="1">
          <mxGeometry x="5" y="90" width="10" height="300" as="geometry" />
        </mxCell>
        <mxCell id="TqxyXy0SHhE-zwgsd13N-4" value="API Server" style="shape=umlLifeline;perimeter=lifelinePerimeter;whiteSpace=wrap;html=1;container=1;dropTarget=0;collapsible=0;recursiveResize=0;outlineConnect=0;portConstraint=eastwest;newEdgeStyle={&quot;curved&quot;:0,&quot;rounded&quot;:0};" parent="1" vertex="1">
          <mxGeometry x="450" y="80" width="100" height="440" as="geometry" />
        </mxCell>
        <mxCell id="TqxyXy0SHhE-zwgsd13N-7" value="選取列表()" style="html=1;verticalAlign=bottom;endArrow=block;curved=0;rounded=0;" parent="1" target="waq_90hb6bEdvXV73J_--1" edge="1">
          <mxGeometry relative="1" as="geometry">
            <mxPoint x="185" y="180" as="sourcePoint" />
            <mxPoint x="290" y="180" as="targetPoint" />
          </mxGeometry>
        </mxCell>
        <mxCell id="TqxyXy0SHhE-zwgsd13N-49" value="刪除收藏地點" style="shape=umlFrame;whiteSpace=wrap;html=1;pointerEvents=0;width=100;height=30;" parent="1" vertex="1">
          <mxGeometry x="40" y="40" width="560" height="480" as="geometry" />
        </mxCell>
        <mxCell id="TqxyXy0SHhE-zwgsd13N-50" value="使用者" style="text;html=1;align=center;verticalAlign=middle;whiteSpace=wrap;rounded=0;" parent="1" vertex="1">
          <mxGeometry x="150" y="120" width="60" height="30" as="geometry" />
        </mxCell>
        <mxCell id="waq_90hb6bEdvXV73J_--5" value="顯示地點列表()" style="html=1;verticalAlign=bottom;endArrow=open;dashed=1;endSize=8;curved=0;rounded=0;" parent="1" source="VcYvTpe73nL05Xeo0cOq-7" target="TqxyXy0SHhE-zwgsd13N-10" edge="1">
          <mxGeometry relative="1" as="geometry">
            <mxPoint x="335" y="220" as="sourcePoint" />
            <mxPoint x="220" y="215" as="targetPoint" />
            <Array as="points" />
          </mxGeometry>
        </mxCell>
        <mxCell id="Vx5Z0k7N1KheZDOBe14Z-8" value="點選欲刪除地點之收藏鈕()" style="html=1;verticalAlign=bottom;endArrow=block;curved=0;rounded=0;" parent="1" source="TqxyXy0SHhE-zwgsd13N-10" target="Vx5Z0k7N1KheZDOBe14Z-10" edge="1">
          <mxGeometry width="80" relative="1" as="geometry">
            <mxPoint x="220" y="259.76" as="sourcePoint" />
            <mxPoint x="335" y="260" as="targetPoint" />
            <Array as="points">
              <mxPoint x="260" y="260" />
            </Array>
          </mxGeometry>
        </mxCell>
        <mxCell id="VcYvTpe73nL05Xeo0cOq-3" value="" style="shape=umlLifeline;perimeter=lifelinePerimeter;whiteSpace=wrap;html=1;container=1;dropTarget=0;collapsible=0;recursiveResize=0;outlineConnect=0;portConstraint=eastwest;newEdgeStyle={&quot;curved&quot;:0,&quot;rounded&quot;:0};participant=umlBoundary;" parent="1" vertex="1">
          <mxGeometry x="315" y="80" width="50" height="440" as="geometry" />
        </mxCell>
        <mxCell id="waq_90hb6bEdvXV73J_--1" value="" style="html=1;points=[[0,0,0,0,5],[0,1,0,0,-5],[1,0,0,0,5],[1,1,0,0,-5]];perimeter=orthogonalPerimeter;outlineConnect=0;targetShapes=umlLifeline;portConstraint=eastwest;newEdgeStyle={&quot;curved&quot;:0,&quot;rounded&quot;:0};" parent="VcYvTpe73nL05Xeo0cOq-3" vertex="1">
          <mxGeometry x="20" y="90" width="10" height="20" as="geometry" />
        </mxCell>
        <mxCell id="Vx5Z0k7N1KheZDOBe14Z-10" value="" style="html=1;points=[[0,0,0,0,5],[0,1,0,0,-5],[1,0,0,0,5],[1,1,0,0,-5]];perimeter=orthogonalPerimeter;outlineConnect=0;targetShapes=umlLifeline;portConstraint=eastwest;newEdgeStyle={&quot;curved&quot;:0,&quot;rounded&quot;:0};" parent="VcYvTpe73nL05Xeo0cOq-3" vertex="1">
          <mxGeometry x="20" y="170" width="10" height="60" as="geometry" />
        </mxCell>
        <mxCell id="VcYvTpe73nL05Xeo0cOq-7" value="" style="html=1;points=[[0,0,0,0,5],[0,1,0,0,-5],[1,0,0,0,5],[1,1,0,0,-5]];perimeter=orthogonalPerimeter;outlineConnect=0;targetShapes=umlLifeline;portConstraint=eastwest;newEdgeStyle={&quot;curved&quot;:0,&quot;rounded&quot;:0};" parent="VcYvTpe73nL05Xeo0cOq-3" vertex="1">
          <mxGeometry x="20" y="130" width="10" height="20" as="geometry" />
        </mxCell>
        <mxCell id="P8LXLjjHnIh0lmnHtAdy-10" value="選取取消刪除()" style="html=1;verticalAlign=bottom;endArrow=block;curved=0;rounded=0;" parent="VcYvTpe73nL05Xeo0cOq-3" target="P8LXLjjHnIh0lmnHtAdy-11" edge="1">
          <mxGeometry width="80" relative="1" as="geometry">
            <mxPoint x="-130" y="340" as="sourcePoint" />
            <mxPoint x="20" y="340" as="targetPoint" />
            <Array as="points">
              <mxPoint x="-55" y="340" />
            </Array>
          </mxGeometry>
        </mxCell>
        <mxCell id="P8LXLjjHnIh0lmnHtAdy-11" value="" style="html=1;points=[[0,0,0,0,5],[0,1,0,0,-5],[1,0,0,0,5],[1,1,0,0,-5]];perimeter=orthogonalPerimeter;outlineConnect=0;targetShapes=umlLifeline;portConstraint=eastwest;newEdgeStyle={&quot;curved&quot;:0,&quot;rounded&quot;:0};" parent="VcYvTpe73nL05Xeo0cOq-3" vertex="1">
          <mxGeometry x="20" y="330" width="10" height="60" as="geometry" />
        </mxCell>
        <mxCell id="P8LXLjjHnIh0lmnHtAdy-12" value="顯示刪除失敗()" style="html=1;verticalAlign=bottom;endArrow=open;dashed=1;endSize=8;curved=0;rounded=0;" parent="VcYvTpe73nL05Xeo0cOq-3" edge="1">
          <mxGeometry relative="1" as="geometry">
            <mxPoint x="20" y="379.65999999999997" as="sourcePoint" />
            <mxPoint x="-130" y="379.65999999999997" as="targetPoint" />
            <Array as="points" />
          </mxGeometry>
        </mxCell>
        <mxCell id="VcYvTpe73nL05Xeo0cOq-5" value="收藏&lt;span style=&quot;background-color: transparent; color: light-dark(rgb(0, 0, 0), rgb(255, 255, 255));&quot;&gt;介面&lt;/span&gt;" style="text;html=1;align=center;verticalAlign=middle;whiteSpace=wrap;rounded=0;" parent="1" vertex="1">
          <mxGeometry x="290" y="120" width="100" height="30" as="geometry" />
        </mxCell>
        <mxCell id="VcYvTpe73nL05Xeo0cOq-6" value="" style="html=1;points=[[0,0,0,0,5],[0,1,0,0,-5],[1,0,0,0,5],[1,1,0,0,-5]];perimeter=orthogonalPerimeter;outlineConnect=0;targetShapes=umlLifeline;portConstraint=eastwest;newEdgeStyle={&quot;curved&quot;:0,&quot;rounded&quot;:0};" parent="1" vertex="1">
          <mxGeometry x="495" y="170" width="10" height="60" as="geometry" />
        </mxCell>
        <mxCell id="VcYvTpe73nL05Xeo0cOq-8" value="查詢地點()" style="html=1;verticalAlign=bottom;endArrow=block;curved=0;rounded=0;" parent="1" source="waq_90hb6bEdvXV73J_--1" target="VcYvTpe73nL05Xeo0cOq-6" edge="1">
          <mxGeometry width="80" relative="1" as="geometry">
            <mxPoint x="373" y="180" as="sourcePoint" />
            <mxPoint x="453" y="180" as="targetPoint" />
          </mxGeometry>
        </mxCell>
        <mxCell id="VcYvTpe73nL05Xeo0cOq-9" value="回傳地點列表()" style="html=1;verticalAlign=bottom;endArrow=open;dashed=1;endSize=8;curved=0;rounded=0;" parent="1" source="VcYvTpe73nL05Xeo0cOq-6" target="VcYvTpe73nL05Xeo0cOq-7" edge="1">
          <mxGeometry relative="1" as="geometry">
            <mxPoint x="605" y="219.66" as="sourcePoint" />
            <mxPoint x="525" y="219.66" as="targetPoint" />
            <Array as="points">
              <mxPoint x="410" y="220" />
            </Array>
          </mxGeometry>
        </mxCell>
        <mxCell id="Vx5Z0k7N1KheZDOBe14Z-7" value="" style="html=1;points=[[0,0,0,0,5],[0,1,0,0,-5],[1,0,0,0,5],[1,1,0,0,-5]];perimeter=orthogonalPerimeter;outlineConnect=0;targetShapes=umlLifeline;portConstraint=eastwest;newEdgeStyle={&quot;curved&quot;:0,&quot;rounded&quot;:0};" parent="1" vertex="1">
          <mxGeometry x="495" y="330" width="10" height="60" as="geometry" />
        </mxCell>
        <mxCell id="Vx5Z0k7N1KheZDOBe14Z-12" value="回傳刪除成功()" style="html=1;verticalAlign=bottom;endArrow=open;dashed=1;endSize=8;curved=0;rounded=0;" parent="1" source="Vx5Z0k7N1KheZDOBe14Z-7" target="Vx5Z0k7N1KheZDOBe14Z-6" edge="1">
          <mxGeometry relative="1" as="geometry">
            <mxPoint x="490" y="380" as="sourcePoint" />
            <mxPoint x="520" y="380" as="targetPoint" />
            <Array as="points">
              <mxPoint x="420" y="380" />
            </Array>
          </mxGeometry>
        </mxCell>
        <mxCell id="Vx5Z0k7N1KheZDOBe14Z-9" value="刪除地點&lt;span style=&quot;color: light-dark(rgb(0, 0, 0), rgb(255, 255, 255)); background-color: light-dark(#ffffff, var(--ge-dark-color, #121212));&quot;&gt;()&lt;/span&gt;" style="html=1;verticalAlign=bottom;endArrow=block;curved=0;rounded=0;" parent="1" target="Vx5Z0k7N1KheZDOBe14Z-7" edge="1">
          <mxGeometry width="80" relative="1" as="geometry">
            <mxPoint x="345" y="340" as="sourcePoint" />
            <mxPoint x="614" y="420" as="targetPoint" />
          </mxGeometry>
        </mxCell>
        <mxCell id="Vx5Z0k7N1KheZDOBe14Z-13" value="顯示刪除成功()" style="html=1;verticalAlign=bottom;endArrow=open;dashed=1;endSize=8;curved=0;rounded=0;" parent="1" source="Vx5Z0k7N1KheZDOBe14Z-6" edge="1">
          <mxGeometry relative="1" as="geometry">
            <mxPoint x="450" y="379.76" as="sourcePoint" />
            <mxPoint x="185" y="380" as="targetPoint" />
          </mxGeometry>
        </mxCell>
        <mxCell id="Vx5Z0k7N1KheZDOBe14Z-6" value="" style="html=1;points=[[0,0,0,0,5],[0,1,0,0,-5],[1,0,0,0,5],[1,1,0,0,-5]];perimeter=orthogonalPerimeter;outlineConnect=0;targetShapes=umlLifeline;portConstraint=eastwest;newEdgeStyle={&quot;curved&quot;:0,&quot;rounded&quot;:0};" parent="1" vertex="1">
          <mxGeometry x="335" y="370" width="10" height="20" as="geometry" />
        </mxCell>
        <mxCell id="P8LXLjjHnIh0lmnHtAdy-1" value="" style="html=1;points=[[0,0,0,0,5],[0,1,0,0,-5],[1,0,0,0,5],[1,1,0,0,-5]];perimeter=orthogonalPerimeter;outlineConnect=0;targetShapes=umlLifeline;portConstraint=eastwest;newEdgeStyle={&quot;curved&quot;:0,&quot;rounded&quot;:0};" parent="1" vertex="1">
          <mxGeometry x="335" y="330" width="10" height="20" as="geometry" />
        </mxCell>
        <mxCell id="P8LXLjjHnIh0lmnHtAdy-2" value="顯示確認視窗()" style="html=1;verticalAlign=bottom;endArrow=open;dashed=1;endSize=8;curved=0;rounded=0;" parent="1" edge="1">
          <mxGeometry relative="1" as="geometry">
            <mxPoint x="335" y="299.65999999999997" as="sourcePoint" />
            <mxPoint x="185" y="299.65999999999997" as="targetPoint" />
            <Array as="points" />
          </mxGeometry>
        </mxCell>
        <mxCell id="P8LXLjjHnIh0lmnHtAdy-3" value="選取確定刪除()" style="html=1;verticalAlign=bottom;endArrow=block;curved=0;rounded=0;" parent="1" edge="1">
          <mxGeometry width="80" relative="1" as="geometry">
            <mxPoint x="185" y="339.65999999999997" as="sourcePoint" />
            <mxPoint x="335" y="339.65999999999997" as="targetPoint" />
            <Array as="points">
              <mxPoint x="260" y="339.65999999999997" />
            </Array>
          </mxGeometry>
        </mxCell>
        <mxCell id="P8LXLjjHnIh0lmnHtAdy-13" value="alt" style="shape=umlFrame;whiteSpace=wrap;html=1;pointerEvents=0;" parent="1" vertex="1">
          <mxGeometry x="80" y="320" width="480" height="160" as="geometry" />
        </mxCell>
        <mxCell id="P8LXLjjHnIh0lmnHtAdy-14" value="" style="endArrow=none;dashed=1;html=1;rounded=0;exitX=0.001;exitY=0.502;exitDx=0;exitDy=0;exitPerimeter=0;entryX=1;entryY=0.498;entryDx=0;entryDy=0;entryPerimeter=0;" parent="1" source="P8LXLjjHnIh0lmnHtAdy-13" target="P8LXLjjHnIh0lmnHtAdy-13" edge="1">
          <mxGeometry width="50" height="50" relative="1" as="geometry">
            <mxPoint x="310" y="320" as="sourcePoint" />
            <mxPoint x="360" y="270" as="targetPoint" />
          </mxGeometry>
        </mxCell>
        <mxCell id="P8LXLjjHnIh0lmnHtAdy-15" value="[&lt;span style=&quot;font-size: 11px; text-wrap-mode: nowrap; background-color: rgb(255, 255, 255);&quot;&gt;確定刪除&lt;/span&gt;]" style="text;html=1;align=center;verticalAlign=middle;whiteSpace=wrap;rounded=0;" parent="1" vertex="1">
          <mxGeometry x="80" y="360" width="60" height="30" as="geometry" />
        </mxCell>
        <mxCell id="P8LXLjjHnIh0lmnHtAdy-16" value="[&lt;span style=&quot;font-size: 11px; text-wrap-mode: nowrap; background-color: rgb(255, 255, 255);&quot;&gt;取消刪除&lt;/span&gt;]" style="text;html=1;align=center;verticalAlign=middle;whiteSpace=wrap;rounded=0;" parent="1" vertex="1">
          <mxGeometry x="80" y="400" width="60" height="30" as="geometry" />
        </mxCell>
      </root>
    </mxGraphModel>
  </diagram>
</mxfile>
